<?xml version="1.0" encoding="UTF-8"?>
<svg version="1.1" xmlns="http://www.w3.org/2000/svg" width="1024" height="1024">
<path d="M0 0 C337.92 0 675.84 0 1024 0 C1024 337.92 1024 675.84 1024 1024 C686.08 1024 348.16 1024 0 1024 C0 686.08 0 348.16 0 0 Z " fill="#161616" transform="translate(0,0)"/>
<path d="M0 0 C23.18964401 18.63898806 38.36497135 44.17615473 41.6953125 73.96630859 C44.15471182 101.59469955 37.08831924 130.10346247 19.65625 152.0859375 C18.41720428 153.5121949 17.16844388 154.93012419 15.90625 156.3359375 C15.43058594 156.94050781 14.95492187 157.54507813 14.46484375 158.16796875 C3.47994994 172.03209399 -13.8622026 181.83761468 -30.09375 188.3359375 C-31.01027344 188.72338135 -31.01027344 188.72338135 -31.9453125 189.11865234 C-42.86007745 193.56276558 -54.02919634 193.83345357 -65.65625 193.8984375 C-66.39025024 193.90728973 -67.12425049 193.91614197 -67.88049316 193.92526245 C-77.80137752 194.00625209 -86.81067779 192.83671533 -96.40209961 190.28881836 C-102.15581004 188.803683 -106.16010924 188.02563729 -111.953125 189.59375 C-113.06075195 189.88765625 -114.16837891 190.1815625 -115.30957031 190.484375 C-116.47584961 190.80664062 -117.64212891 191.12890625 -118.84375 191.4609375 C-120.04354492 191.780625 -121.24333984 192.1003125 -122.47949219 192.4296875 C-127.87978311 193.87632316 -133.26277754 195.37118958 -138.625 196.953125 C-139.43356445 197.1888623 -140.24212891 197.42459961 -141.07519531 197.66748047 C-142.53695706 198.09820622 -143.99507219 198.54161024 -145.44824219 199.00048828 C-150.00579986 200.3524209 -153.51778887 200.73718875 -158.09375 199.3359375 C-162.87085356 194.11703323 -162.57384199 189.37109123 -162.38671875 182.54296875 C-162.3698947 180.37574931 -162.35550015 178.20850995 -162.34326172 176.04125977 C-162.32582916 174.35046799 -162.32582916 174.35046799 -162.30804443 172.6255188 C-162.15571489 152.85789759 -162.93554564 136.25578076 -171.02124023 118.01806641 C-174.15904766 110.17104788 -175.72819347 101.75448929 -176.09375 93.3359375 C-176.12629883 92.65031738 -176.15884766 91.96469727 -176.19238281 91.25830078 C-177.37113847 62.91458528 -168.78809389 36.88437969 -150.09375 15.3359375 C-149.41828125 14.51609375 -148.7428125 13.69625 -148.046875 12.8515625 C-110.95325719 -30.74020734 -44.21781383 -34.30299475 0 0 Z " fill="#161616" transform="translate(275.09375,400.6640625)"/>
<path d="M0 0 C23.18964401 18.63898806 38.36497135 44.17615473 41.6953125 73.96630859 C44.15471182 101.59469955 37.08831924 130.10346247 19.65625 152.0859375 C18.41720428 153.5121949 17.16844388 154.93012419 15.90625 156.3359375 C15.43058594 156.94050781 14.95492187 157.54507813 14.46484375 158.16796875 C3.47994994 172.03209399 -13.8622026 181.83761468 -30.09375 188.3359375 C-31.01027344 188.72338135 -31.01027344 188.72338135 -31.9453125 189.11865234 C-42.86007745 193.56276558 -54.02919634 193.83345357 -65.65625 193.8984375 C-66.39025024 193.90728973 -67.12425049 193.91614197 -67.88049316 193.92526245 C-77.80137752 194.00625209 -86.81067779 192.83671533 -96.40209961 190.28881836 C-102.15581004 188.803683 -106.16010924 188.02563729 -111.953125 189.59375 C-113.06075195 189.88765625 -114.16837891 190.1815625 -115.30957031 190.484375 C-116.47584961 190.80664062 -117.64212891 191.12890625 -118.84375 191.4609375 C-120.04354492 191.780625 -121.24333984 192.1003125 -122.47949219 192.4296875 C-127.87978311 193.87632316 -133.26277754 195.37118958 -138.625 196.953125 C-139.43356445 197.1888623 -140.24212891 197.42459961 -141.07519531 197.66748047 C-142.53695706 198.09820622 -143.99507219 198.54161024 -145.44824219 199.00048828 C-150.00579986 200.3524209 -153.51778887 200.73718875 -158.09375 199.3359375 C-162.87085356 194.11703323 -162.57384199 189.37109123 -162.38671875 182.54296875 C-162.3698947 180.37574931 -162.35550015 178.20850995 -162.34326172 176.04125977 C-162.32582916 174.35046799 -162.32582916 174.35046799 -162.30804443 172.6255188 C-162.15571489 152.85789759 -162.93554564 136.25578076 -171.02124023 118.01806641 C-174.15904766 110.17104788 -175.72819347 101.75448929 -176.09375 93.3359375 C-176.12629883 92.65031738 -176.15884766 91.96469727 -176.19238281 91.25830078 C-177.37113847 62.91458528 -168.78809389 36.88437969 -150.09375 15.3359375 C-149.41828125 14.51609375 -148.7428125 13.69625 -148.046875 12.8515625 C-110.95325719 -30.74020734 -44.21781383 -34.30299475 0 0 Z M-128.09375 32.3359375 C-141.54888342 48.81847594 -149.96040553 69.68831189 -148.32568359 91.19238281 C-147.02766759 103.18878336 -144.24035907 115.58547084 -138.07324219 126.07104492 C-133.97741771 133.7236246 -134.42138557 141.95150728 -134.34375 150.3984375 C-134.31554468 151.94729834 -134.285611 153.49612872 -134.25390625 155.04492188 C-134.1805832 158.80853842 -134.13068145 162.57179515 -134.09375 166.3359375 C-126.55857256 164.93480935 -119.23835181 163.08413549 -111.88671875 160.92773438 C-104.28894599 158.82135998 -99.40275259 160.07663729 -92.03125 162.8359375 C-74.68911179 169.31334851 -53.11538824 168.72824205 -36.09375 161.3359375 C-35.44519043 161.05717773 -34.79663086 160.77841797 -34.12841797 160.49121094 C-24.22589085 156.07214398 -16.62203303 150.06408645 -9.09375 142.3359375 C-8.34351563 141.583125 -7.59328125 140.8303125 -6.8203125 140.0546875 C8.74342002 123.5964876 13.59224534 102.14767694 13.22265625 80.15625 C12.92346105 72.45729399 11.38153343 65.63150971 8.90625 58.3359375 C8.555625 57.2840625 8.205 56.2321875 7.84375 55.1484375 C0.19132081 34.74195967 -16.27590756 19.42775308 -35.84375 10.5234375 C-68.89591279 -2.16859301 -104.26714244 6.09213787 -128.09375 32.3359375 Z " fill="#995AD9" transform="translate(275.09375,400.6640625)"/>
<path d="M0 0 C4.50417817 2.80760439 7.9271621 5.65305857 11 10 C11.51046875 9.40832031 12.0209375 8.81664062 12.546875 8.20703125 C19.9255948 0.18725246 27.32609478 -4.03390772 38.29663086 -4.53710938 C49.06883074 -4.66124331 58.06950112 -2.85518028 66.5 4.25 C70.42614022 8.09434563 73.29809297 11.7555365 75 17 C75.3407959 18.03374756 75.6815918 19.06749512 76.03271484 20.13256836 C77.71455727 26.97061594 77.24476091 34.09892047 77.1953125 41.09375 C77.19157684 42.65173154 77.18873248 44.20971545 77.18673706 45.7677002 C77.17914408 49.84475323 77.15953344 53.92166108 77.1373291 57.99865723 C77.11677669 62.16835568 77.10771535 66.33807786 77.09765625 70.5078125 C77.07628292 78.67194866 77.04113674 86.83593948 77 95 C68.42 95 59.84 95 51 95 C50.9906543 93.10314453 50.98130859 91.20628906 50.97167969 89.25195312 C50.93605585 82.96136795 50.88219698 76.67114196 50.81609726 70.38080597 C50.77670812 66.56960919 50.74447814 62.75864048 50.72900391 58.94726562 C50.71378019 55.2640966 50.67923545 51.58155495 50.63169098 47.89866638 C50.61693561 46.49862646 50.60896236 45.09849694 50.60811615 43.69837952 C50.5984998 35.76039499 50.44115357 29.72429625 46 23 C41.36036764 19.19312216 35.89879567 19.49597677 30.1328125 19.66015625 C25.5341421 20.15901451 23.54593585 20.98218226 20 24 C15.22687984 31.22159827 15.39581332 38.11628501 15.390625 46.5625 C15.37562199 47.96356091 15.35889042 49.36460426 15.34051514 50.765625 C15.29706634 54.42833325 15.27689307 58.09080302 15.26177979 61.75372314 C15.24212686 65.50132213 15.2001665 69.2486666 15.16015625 72.99609375 C15.08509787 80.33069256 15.0367252 87.66509073 15 95 C6.75 95 -1.5 95 -10 95 C-10.01458252 93.22955322 -10.02916504 91.45910645 -10.04418945 89.63500977 C-10.09604048 83.75558821 -10.16137919 77.87639766 -10.23571491 71.99722385 C-10.2802562 68.4360796 -10.31954678 64.87504546 -10.34643555 61.3137207 C-10.37765655 57.21016331 -10.43243778 53.10720301 -10.48828125 49.00390625 C-10.49467117 47.73793106 -10.5010611 46.47195587 -10.50764465 45.1676178 C-10.64440306 36.87287781 -11.06742489 29.60932321 -16.4375 23 C-21.51876558 19.03413418 -27.78430361 19.38371282 -34 20 C-38.71310776 21.43292287 -41.82515392 24.28696542 -44.17712402 28.62136841 C-46.05961767 34.06296471 -45.60594519 39.98669967 -45.609375 45.68359375 C-45.6243728 47.10850388 -45.6411033 48.53339672 -45.65948486 49.95826721 C-45.70299204 53.68839358 -45.72312007 57.41828552 -45.73822021 61.14862061 C-45.75785182 64.96315274 -45.79981475 68.77743391 -45.83984375 72.59179688 C-45.91496557 80.06116191 -45.96329867 87.53032926 -46 95 C-54.25 95 -62.5 95 -71 95 C-71 62.99 -71 30.98 -71 -2 C-63.08 -2 -55.16 -2 -47 -2 C-46.67 0.97 -46.34 3.94 -46 7 C-45.319375 6.2575 -44.63875 5.515 -43.9375 4.75 C-32.69116088 -6.43297947 -13.59381369 -7.19412867 0 0 Z " fill="#F8F0E1" transform="translate(752,461)"/>
<path d="M0 0 C1.05968994 0.00572021 2.11937988 0.01144043 3.21118164 0.01733398 C15.76527888 0.30328896 24.89741293 3.9726412 34.25 12.5 C35.20519531 13.35271484 35.20519531 13.35271484 36.1796875 14.22265625 C45.23900453 22.75707723 50.69675719 34.38213299 51.453125 46.84765625 C51.66536933 63.66801959 47.39887826 76.89495454 35.6640625 89.27734375 C24.82769549 99.25451662 10.66667711 103.05919593 -3.76171875 102.77734375 C-13.91672481 102.07116801 -22.44992709 98.21020053 -30.75 92.5 C-31.6575 91.88125 -32.565 91.2625 -33.5 90.625 C-43.72379978 80.9691891 -49.54281969 67.42901411 -50.20556641 53.47900391 C-50.48811397 39.70248156 -46.84859504 27.09210092 -37.75 16.5 C-37.20472656 15.85675781 -36.65945313 15.21351563 -36.09765625 14.55078125 C-26.31606367 3.94063024 -14.09020647 -0.08811259 0 0 Z " fill="#F7F0E1" transform="translate(507.75,456.5)"/>
<path d="M0 0 C11.55572394 7.84791612 18.54058254 19.38556357 21.77734375 32.9140625 C24.35684939 48.732188 20.47537189 63.80236015 11.25 76.8125 C3.53218155 87.07640288 -8.88088589 92.45122048 -21.21875 94.4140625 C-36.1881521 96.10308796 -48.58496762 92.95307732 -60.96875 84.25390625 C-70.79180316 76.37657323 -76.82537111 64.15170951 -78.75 51.8125 C-79.81992105 34.97439828 -76.66079382 20.75537578 -65.5625 7.625 C-61.11602459 2.88454274 -56.57007017 -0.33975924 -50.75 -3.1875 C-49.98945312 -3.6 -49.22890625 -4.0125 -48.4453125 -4.4375 C-33.27869069 -11.41511514 -13.86384067 -8.11081835 0 0 Z " fill="#F7F0E1" transform="translate(646.75,464.1875)"/>
<path d="M0 0 C1.10794922 0.433125 1.10794922 0.433125 2.23828125 0.875 C10.77135579 4.5864732 18.0771141 11.56964128 22 20 C24.16070552 25.63358037 25 29.87752726 25 36 C16.75 36 8.5 36 0 36 C-1.32 33.36 -2.64 30.72 -4 28 C-8.98409947 23.01590053 -14.90391898 20.65317597 -21.89941406 20.53173828 C-22.57198242 20.54188965 -23.24455078 20.55204102 -23.9375 20.5625 C-24.6397168 20.57007324 -25.34193359 20.57764648 -26.06542969 20.58544922 C-31.49890643 20.7583211 -35.80083853 21.44176317 -40 25 C-42.91615437 28.20776981 -44.2387379 30.72183305 -44.5 35 C-44.21986584 39.32560094 -43.00480322 41.78056798 -40 45 C-31.53798071 50.36522444 -21.63725554 52.73353343 -12.10327148 55.47412109 C0.60934293 59.1524738 14.45668777 63.28517126 22 75 C27.40225334 85.0731247 28.76602405 95.07819536 25.4375 106.1875 C21.94431657 115.5433689 15.60066992 122.91548631 7 128 C-8.92856536 135.05094751 -29.37823562 137.23609214 -46 131 C-59.00582264 125.61490405 -66.96277937 118.84107246 -73 106 C-74.81386071 100.93148141 -76 96.39438742 -76 91 C-67.42 91 -58.84 91 -50 91 C-47.525 95.95 -47.525 95.95 -45 101 C-39.75930812 106.33774173 -34.67222306 109.5507984 -27.16796875 110.46875 C-18.92736099 110.53344564 -11.78946078 110.2545725 -5 105 C-1.54714478 101.2821401 -1.42045642 98.31954913 -1.59375 93.40234375 C-1.86543095 90.7578152 -1.86543095 90.7578152 -4 88.125 C-12.37557454 82.19230137 -22.04257863 79.55318215 -31.71679688 76.50537109 C-45.88636896 72.02164286 -62.23796945 66.78525234 -69.5625 52.6875 C-73.55331196 42.45019975 -73.73466468 29.58232993 -69.31640625 19.421875 C-63.30603301 8.36421504 -54.38612889 1.42169518 -42.44775391 -2.55932617 C-28.91370517 -6.36692299 -12.87393135 -5.60921669 0 0 Z " fill="#F7F0E1" transform="translate(422,425)"/>
<path d="M0 0 C1.37140137 0.01135986 1.37140137 0.01135986 2.77050781 0.02294922 C15.11756915 0.32170362 25.42620462 3.7601026 34.58203125 12.1796875 C47.56995487 25.81842211 47.6875 40.16928414 47.6875 58.4375 C24.5875 58.4375 1.4875 58.4375 -22.3125 58.4375 C-19.35751711 68.28744296 -17.59993905 73.11989118 -9.125 78.4375 C-1.67472342 80.39167091 6.51676027 80.44921068 13.6875 77.4375 C17.00192236 75.19199808 19.45087966 72.79243051 21.6875 69.4375 C24.20947266 69.09692383 24.20947266 69.09692383 27.3515625 69.14453125 C28.47304688 69.15419922 29.59453125 69.16386719 30.75 69.17382812 C32.5134375 69.2115332 32.5134375 69.2115332 34.3125 69.25 C36.08753906 69.27030273 36.08753906 69.27030273 37.8984375 69.29101562 C40.82857539 69.32646084 43.75781459 69.37587231 46.6875 69.4375 C41.48774031 82.97421318 35.60873634 91.6978883 22.5078125 98.359375 C10.98368704 102.76471936 -4.67184486 103.8365573 -16.4375 99.875 C-18.8984375 98.76171875 -18.8984375 98.76171875 -21.3125 97.4375 C-22.25351562 96.92832031 -23.19453125 96.41914062 -24.1640625 95.89453125 C-35.80839083 89.03661821 -41.87119818 79.87483278 -46.46484375 67.27734375 C-47.59406976 62.16200198 -47.60297748 57.28409538 -47.5625 52.0625 C-47.57023438 51.0725 -47.57796875 50.0825 -47.5859375 49.0625 C-47.54884269 35.00356801 -43.44044897 22.82749977 -33.57421875 12.47265625 C-23.74456331 3.62766405 -13.10232861 -0.15348581 0 0 Z " fill="#F8F0E1" transform="translate(888.3125,456.5625)"/>
<path d="M0 0 C9.28959859 7.31555889 16.47003314 18.19494221 18.5 29.96875 C19.52631931 44.84104981 16.75034672 57.38578113 7.375 69.09375 C-0.72539512 77.95466257 -11.81610519 83.32038087 -23.69140625 84.20703125 C-38.96231318 84.54323893 -50.23808784 80.05236444 -61.25 69.65625 C-69.96174998 60.59542293 -74.09619055 49.72230443 -74 37.21875 C-73.99427979 36.34694092 -73.98855957 35.47513184 -73.98266602 34.5769043 C-73.62803868 21.64912588 -68.50951264 11.67403032 -59.25 2.81640625 C-41.81966594 -12.183737 -18.87898962 -12.95186497 0 0 Z " fill="#F8F1E2" transform="translate(235.5,450.03125)"/>
<path d="M0 0 C5.50321522 3.40960073 9.9423412 8.61177363 11.96484375 14.8125 C14.10150891 26.67893794 12.82724378 36.83986653 6.8125 47.25 C1.27186549 52.353216 -4.52698903 54.75111525 -12.0625 55.0625 C-19.35581331 54.73606195 -25.24464185 52.79674516 -30.44140625 47.53515625 C-37.70725745 38.41344908 -37.76590251 27.62569097 -36.5625 16.4375 C-34.70039675 9.51280353 -30.63907652 4.24823443 -24.5625 0.4375 C-17.68954394 -3.00491322 -7.06888577 -3.19195811 0 0 Z " fill="#161616" transform="translate(630.5625,481.5625)"/>
<path d="M0 0 C3.51879112 2.1859157 6.15772241 4.88732493 8.375 8.375 C8.96474609 9.26058594 8.96474609 9.26058594 9.56640625 10.1640625 C14.00619977 18.17734837 13.6970706 28.74736257 11.64453125 37.484375 C9.16887327 44.15349445 5.80002131 49.36717342 -0.625 52.75 C-7.35955681 55.40572373 -14.54188526 55.59208228 -21.46875 53.52734375 C-27.42142591 50.88270611 -31.64010597 47.20361063 -34.625 41.375 C-37.87839648 32.13265221 -38.7612319 19.6992331 -34.5625 10.625 C-27.39718543 -1.1480381 -12.83485672 -5.88980041 0 0 Z " fill="#161616" transform="translate(520.625,481.625)"/>
<path d="M0 0 C5.14231895 3.39587101 7.97610438 7.26043961 10 13 C10.495 15.97 10.495 15.97 11 19 C-4.18 19 -19.36 19 -35 19 C-34.00722105 11.05776837 -33.32025782 8.34309154 -28 3 C-19.02717932 -3.83965954 -10.24775159 -4.71510648 0 0 Z " fill="#161616" transform="translate(901,479)"/>
<path d="M0 0 C1.5631897 0.00785522 1.5631897 0.00785522 3.15795898 0.01586914 C4.28266602 0.0190918 5.40737305 0.02231445 6.56616211 0.02563477 C7.75016602 0.03401367 8.93416992 0.04239258 10.15405273 0.05102539 C11.34192383 0.05553711 12.52979492 0.06004883 13.75366211 0.06469727 C16.69967499 0.07652864 19.64558954 0.09301252 22.59155273 0.11352539 C22.88030273 1.24790039 23.16905273 2.38227539 23.46655273 3.55102539 C23.83780273 4.72665039 24.20905273 5.90227539 24.59155273 7.11352539 C25.25155273 7.44352539 25.91155273 7.77352539 26.59155273 8.11352539 C25.27155273 9.43352539 23.95155273 10.75352539 22.59155273 12.11352539 C22.59155273 8.81352539 22.59155273 5.51352539 22.59155273 2.11352539 C14.67155273 2.11352539 6.75155273 2.11352539 -1.40844727 2.11352539 C-1.40844727 34.12352539 -1.40844727 66.13352539 -1.40844727 99.11352539 C6.84155273 99.11352539 15.09155273 99.11352539 23.59155273 99.11352539 C23.59155273 79.31352539 23.59155273 59.51352539 23.59155273 39.11352539 C24.58155273 38.61852539 24.58155273 38.61852539 25.59155273 38.11352539 C25.48420065 46.18014017 25.37159821 54.24665695 25.25221348 62.31310177 C25.19695043 66.05831337 25.14352518 69.80353273 25.09423828 73.54882812 C25.04664439 77.16041125 24.99430367 80.77189671 24.93861198 84.38336372 C24.91816579 85.76410058 24.89945652 87.14486425 24.88247871 88.52564812 C24.85848493 90.45335853 24.82785009 92.38098288 24.796875 94.30859375 C24.78133072 95.40779648 24.76578644 96.50699921 24.74977112 97.63951111 C24.59155273 100.11352539 24.59155273 100.11352539 23.59155273 101.11352539 C21.67696992 101.21324325 19.75872956 101.24433128 17.84155273 101.24633789 C16.67624023 101.24762695 15.51092773 101.24891602 14.31030273 101.25024414 C13.08311523 101.24637695 11.85592773 101.24250977 10.59155273 101.23852539 C8.75077148 101.24432617 8.75077148 101.24432617 6.87280273 101.25024414 C5.70749023 101.24895508 4.54217773 101.24766602 3.34155273 101.24633789 C2.26389648 101.24520996 1.18624023 101.24408203 0.07592773 101.24291992 C-2.40844727 101.11352539 -2.40844727 101.11352539 -3.40844727 100.11352539 C-3.50910354 97.04434351 -3.5445917 93.99762263 -3.5378418 90.92797852 C-3.53959412 89.9638353 -3.54134644 88.99969208 -3.54315186 88.0063324 C-3.54757219 84.80246204 -3.54463174 81.59864637 -3.54125977 78.39477539 C-3.54193275 76.17899566 -3.54290273 73.963216 -3.54415894 71.74743652 C-3.54563616 67.09683532 -3.54348058 62.44625328 -3.53881836 57.7956543 C-3.53312106 51.81969935 -3.53639994 45.8437893 -3.54239082 39.867836 C-3.54599579 35.29038146 -3.54485815 30.71293765 -3.54226303 26.13548279 C-3.54159358 23.93135065 -3.5424228 21.72721756 -3.54474258 19.52308655 C-3.54726805 16.44838867 -3.54343002 13.37376461 -3.5378418 10.29907227 C-3.53986603 9.37851547 -3.54189026 8.45795868 -3.54397583 7.50950623 C-3.51911453 0.16587818 -3.51911453 0.16587818 0 0 Z " fill="#161616" transform="translate(682.408447265625,456.886474609375)"/>
<path d="M0 0 C1.70840281 1.63412443 2.93453047 2.86906094 4 5 C4.039992 6.99960012 4.04346799 9.00047242 4 11 C4.66 11 5.32 11 6 11 C6 30.47 6 49.94 6 70 C12.93 70 19.86 70 27 70 C27 46.9 27 23.8 27 0 C27.66 0.33 28.32 0.66 29 1 C29 24.1 29 47.2 29 71 C20.42 71 11.84 71 3 71 C2.98018066 69.09790771 2.96036133 67.19581543 2.93994141 65.23608398 C2.87201969 58.9336092 2.79523316 52.63129054 2.71247292 46.3289938 C2.66264401 42.50997448 2.61631348 38.69098103 2.578125 34.87182617 C2.54110194 31.18234167 2.49469726 27.49308096 2.44193649 23.80378914 C2.42348255 22.40011607 2.40834178 20.99639519 2.39665604 19.59264946 C2.37963922 17.61822853 2.3494753 15.64393444 2.31884766 13.66967773 C2.30552399 12.54826889 2.29220032 11.42686005 2.2784729 10.27146912 C1.96458444 6.58394193 1.11877441 3.51948002 0 0 Z " fill="#ECE7DC" transform="translate(800,485)"/>
<path d="M0 0 C1.10181039 3.30543116 1.08420432 5.64595957 1.02172852 9.1237793 C1.00163223 10.38486008 0.98153595 11.64594086 0.96083069 12.94523621 C0.93363438 14.32156594 0.90632354 15.69789341 0.87890625 17.07421875 C0.85459998 18.48239881 0.83075667 19.89058692 0.80735779 21.29878235 C0.74456724 25.00274853 0.67548645 28.70657176 0.60510254 32.41040039 C0.5343736 36.19085182 0.46958394 39.9714045 0.40429688 43.75195312 C0.27534939 51.16808074 0.1397576 58.58406739 0 66 C-0.99 66 -1.98 66 -3 66 C-3.0697076 58.42832194 -3.12291623 50.85667744 -3.15543652 43.28475094 C-3.17104978 39.76825002 -3.19220765 36.2519697 -3.22631836 32.7355957 C-3.26534335 28.68699095 -3.27974501 24.63861561 -3.29296875 20.58984375 C-3.30845261 19.33541977 -3.32393646 18.08099579 -3.33988953 16.78855896 C-3.34111227 10.41729796 -3.13597842 5.61003751 0 0 Z " fill="#F0EBDD" transform="translate(706,489)"/>
<path d="M0 0 C0 0.99 0 1.98 0 3 C-14.85 3 -29.7 3 -45 3 C-45 2.67 -45 2.34 -45 2 C-43.76846191 1.97494385 -42.53692383 1.9498877 -41.26806641 1.92407227 C-36.70952507 1.83007388 -32.15113882 1.72983485 -27.59277344 1.62768555 C-25.61787538 1.58430797 -23.64293913 1.542635 -21.66796875 1.50268555 C-18.8332161 1.44505127 -15.99865622 1.3813373 -13.1640625 1.31640625 C-12.27756012 1.29969376 -11.39105774 1.28298126 -10.47769165 1.26576233 C-6.81411948 1.17672763 -3.44576817 0 0 0 Z " fill="#161616" transform="translate(912,495)"/>
<path d="M0 0 C2.49210439 2.49210439 2.26015661 4.00360788 2.2734375 7.41015625 C2.26570312 8.09980469 2.25796875 8.78945313 2.25 9.5 C2.25773438 10.18964844 2.26546875 10.87929688 2.2734375 11.58984375 C2.25333293 16.74666707 2.25333293 16.74666707 0 19 C-1.81187842 17.18812158 -1.13234462 14.7302249 -1.13671875 12.32226562 C-1.13285156 11.57654297 -1.12898437 10.83082031 -1.125 10.0625 C-1.12886719 9.32064453 -1.13273438 8.57878906 -1.13671875 7.81445312 C-1.12663501 2.25327002 -1.12663501 2.25327002 0 0 Z " fill="#EAE5DA" transform="translate(557,498)"/>
<path d="M0 0 C0.69416016 -0.01224609 1.38832031 -0.02449219 2.10351562 -0.03710938 C3.92470901 -0.04239842 5.7453692 0.06580793 7.5625 0.1875 C8.2225 0.8475 8.8825 1.5075 9.5625 2.1875 C5.9530118 3.00933247 2.57555639 3.34975746 -1.125 3.375 C-2.07761719 3.38917969 -3.03023437 3.40335938 -4.01171875 3.41796875 C-6.4375 3.1875 -6.4375 3.1875 -8.4375 1.1875 C-6.45630645 -0.79369355 -2.70304936 0.00249589 0 0 Z " fill="#ECE8DD" transform="translate(617.4375,555.8125)"/>
<path d="M0 0 C0.66 0 1.32 0 2 0 C1.51981428 4.16160957 0.85513552 7.28972897 -1 11 C-1.38749213 13.32495277 -1.72982839 15.65851268 -2 18 C-4 16 -4 16 -4.08203125 14.08203125 C-3.46243347 8.86483832 -2.31150885 4.72351809 0 0 Z " fill="#EDE8DF" transform="translate(354,442)"/>
<path d="M0 0 C3.32153186 4.42870914 3.3460174 5.46608682 3.1875 10.75 C3.16042969 11.92046875 3.13335938 13.0909375 3.10546875 14.296875 C3.07066406 15.18890625 3.03585937 16.0809375 3 17 C2.01 17 1.02 17 0 17 C0 11.39 0 5.78 0 0 Z " fill="#E8E2D7" transform="translate(568,499)"/>
<path d="M0 0 C0.99 0.33 1.98 0.66 3 1 C2.60246179 2.46366342 2.18118616 3.9208935 1.75 5.375 C1.51796875 6.18710937 1.2859375 6.99921875 1.046875 7.8359375 C-0.2214892 10.45785454 -1.32423308 10.99382318 -4 12 C-2.66666667 8 -1.33333333 4 0 0 Z " fill="#161616" transform="translate(252,500)"/>
<path d="M0 0 C0.99 0.33 1.98 0.66 3 1 C3 4.3 3 7.6 3 11 C2.67 10.01 2.34 9.02 2 8 C1.34 8 0.68 8 0 8 C0 5.36 0 2.72 0 0 Z " fill="#161616" transform="translate(767,493)"/>
<path d="M0 0 C0.66 0.33 1.32 0.66 2 1 C-1.63 4.3 -5.26 7.6 -9 11 C-9.66 10.67 -10.32 10.34 -11 10 C-7.65996398 5.67760044 -4.67248931 2.82522609 0 0 Z " fill="#161616" transform="translate(589,463)"/>
<path d="M0 0 C0.33 0 0.66 0 1 0 C1.33 4.95 1.66 9.9 2 15 C1.01 15 0.02 15 -1 15 C-0.67 10.05 -0.34 5.1 0 0 Z " fill="#D2CDC2" transform="translate(643,503)"/>
<path d="M0 0 C3.3 0 6.6 0 10 0 C10 0.99 10 1.98 10 3 C6.7 2.34 3.4 1.68 0 1 C0 0.67 0 0.34 0 0 Z " fill="#E8E5DD" transform="translate(376,555)"/>
<path d="M0 0 C2.31 0.33 4.62 0.66 7 1 C7.33 1.99 7.66 2.98 8 4 C6.02 4 4.04 4 2 4 C1.34 2.68 0.68 1.36 0 0 Z " fill="#161616" transform="translate(194,532)"/>
<path d="M0 0 C2.31 0 4.62 0 7 0 C7.33 0.99 7.66 1.98 8 3 C5.36 2.67 2.72 2.34 0 2 C0 1.34 0 0.68 0 0 Z " fill="#161616" transform="translate(388,533)"/>
<path d="M0 0 C1.65 0.33 3.3 0.66 5 1 C5 1.66 5 2.32 5 3 C5.66 3.33 6.32 3.66 7 4 C6.01 4.495 6.01 4.495 5 5 C2.96855359 4.06553465 0.96466413 3.06775224 -1 2 C-0.67 1.34 -0.34 0.68 0 0 Z " fill="#161616" transform="translate(427,485)"/>
<path d="M0 0 C3.19902639 -0.08886184 5.92677456 0.08941469 9 1 C8.67 1.99 8.34 2.98 8 4 C5.125 3.6875 5.125 3.6875 2 3 C1.34 2.01 0.68 1.02 0 0 Z " fill="#161616" transform="translate(799,455)"/>
<path d="M0 0 C0.66 0.33 1.32 0.66 2 1 C0.38405168 3.04119788 -1.2856382 5.04072937 -3 7 C-3.66 7 -4.32 7 -5 7 C-3.70700306 4.11562221 -2.34058637 2.12780579 0 0 Z " fill="#A261DB" transform="translate(132,408)"/>
<path d="M0 0 C1.98 0.495 1.98 0.495 4 1 C3.34 1 2.68 1 2 1 C2.33 2.98 2.66 4.96 3 7 C2.34 7 1.68 7 1 7 C1 6.01 1 5.02 1 4 C0.34 4 -0.32 4 -1 4 C-0.67 2.68 -0.34 1.36 0 0 Z " fill="#EAE6DB" transform="translate(864,514)"/>
<path d="M0 0 C0.99 0.33 1.98 0.66 3 1 C3.33 2.98 3.66 4.96 4 7 C3.01 7 2.02 7 1 7 C0.67 4.69 0.34 2.38 0 0 Z " fill="#161616" transform="translate(529,495)"/>
<path d="M0 0 C1.9451 2.91765 2.45276317 4.62537285 3 8 C2.01 7.67 1.02 7.34 0 7 C-1.125 2.25 -1.125 2.25 0 0 Z " fill="#E9E5DB" transform="translate(931,482)"/>
<path d="M0 0 C0.33 0.66 0.66 1.32 1 2 C-1.35277269 4.72426311 -3.62496331 5.8141763 -7 7 C-4.78071806 4.09197539 -3.07030857 2.04687238 0 0 Z " fill="#AB65E8" transform="translate(143,399)"/>
</svg>
